name C:\Users\Graham\Documents\MATLAB\MOtoNMS_v2_2\MyData\ElaboratedData\S7\17-05-22\dynamicElaborations\rightStSt\\EA2\EA2.mot
datacolumns 55
datarows 4
range 1.25000000000000 1.25500000000000
endheader
time	    ground_force1_vx	    ground_force1_vy	    ground_force1_vz	    ground_force1_px	    ground_force1_py	    ground_force1_pz	    ground_force2_vx	    ground_force2_vy	    ground_force2_vz	    ground_force2_px	    ground_force2_py	    ground_force2_pz	    ground_torque1_x	    ground_torque1_y	    ground_torque1_z	    ground_torque2_x	    ground_torque2_y	    ground_torque2_z	apo_force_vx	apo_force_vy	apo_force_vz	apo_force_px	apo_force_py	apo_force_pz	apo_torque_x	apo_torque_y	apo_torque_z	1_apo_force_vx	1_apo_force_vy	1_apo_force_vz	1_apo_force_px	1_apo_force_py	1_apo_force_pz	1_apo_torque_x	1_apo_torque_y	1_apo_torque_z	apo_group_force_vx	apo_group_force_vy	apo_group_force_vz	apo_group_force_px	apo_group_force_py	apo_group_force_pz	apo_group_torque_x	apo_group_torque_y	apo_group_torque_z	1_apo_group_force_vx	1_apo_group_force_vy	1_apo_group_force_vz	1_apo_group_force_px	1_apo_group_force_py	1_apo_group_force_pz	1_apo_group_torque_x	1_apo_group_torque_y	1_apo_group_torque_z	
1.25000000000000	0.00000000000000	0.00000000000000	0.00000000000000	0.00000000000000	0.00000000000000	0.00000000000000	-43.31238688000000	584.46598568000002	54.27116584000000	0.28414094000000	-0.00000000000000	-0.11616104000000	0.00000000000000	0.00000000000000	0.00000000000000	0.00000000000000	2.61758580000000	-0.00000000000000	0.00000000000000	0.00000000000000	0.00000000000000	0.00000000000000	0.00000000000000	0.00000000000000	0.00000000000000	0.00000000000000	3.97614153867409	0.00000000000000	0.00000000000000	0.00000000000000	0.00000000000000	0.00000000000000	0.00000000000000	0.00000000000000	0.00000000000000	-3.67641244760385	0.00000000000000	0.00000000000000	0.00000000000000	0.00000000000000	0.00000000000000	0.00000000000000	0.00000000000000	0.00000000000000	-3.97614153867409	0.00000000000000	0.00000000000000	0.00000000000000	0.00000000000000	0.00000000000000	0.00000000000000	0.00000000000000	0.00000000000000	3.67641244760385	
1.25167000000000	0.00000000000000	0.00000000000000	0.00000000000000	0.00000000000000	0.00000000000000	0.00000000000000	-42.75814458000000	580.96461342999999	53.62012600000000	0.28330255000000	-0.00000000000000	-0.11613940000000	0.00000000000000	0.00000000000000	0.00000000000000	0.00000000000000	2.56778717000000	-0.00000000000000	0.00000000000000	0.00000000000000	0.00000000000000	0.00000000000000	0.00000000000000	0.00000000000000	0.00000000000000	0.00000000000000	3.91200139154376	0.00000000000000	0.00000000000000	0.00000000000000	0.00000000000000	0.00000000000000	0.00000000000000	0.00000000000000	0.00000000000000	-3.63371486430162	0.00000000000000	0.00000000000000	0.00000000000000	0.00000000000000	0.00000000000000	0.00000000000000	0.00000000000000	0.00000000000000	-3.91200139154376	0.00000000000000	0.00000000000000	0.00000000000000	0.00000000000000	0.00000000000000	0.00000000000000	0.00000000000000	0.00000000000000	3.63371486430162	
1.25333000000000	0.00000000000000	0.00000000000000	0.00000000000000	0.00000000000000	0.00000000000000	0.00000000000000	-42.20960462000000	577.53282195999998	52.96546657000000	0.28246095000000	-0.00000000000000	-0.11611274000000	0.00000000000000	0.00000000000000	0.00000000000000	0.00000000000000	2.51795187000000	-0.00000000000000	0.00000000000000	0.00000000000000	0.00000000000000	0.00000000000000	0.00000000000000	0.00000000000000	0.00000000000000	0.00000000000000	3.84957727211959	0.00000000000000	0.00000000000000	0.00000000000000	0.00000000000000	0.00000000000000	0.00000000000000	0.00000000000000	0.00000000000000	-3.60219509059841	0.00000000000000	0.00000000000000	0.00000000000000	0.00000000000000	0.00000000000000	0.00000000000000	0.00000000000000	0.00000000000000	-3.84957727211959	0.00000000000000	0.00000000000000	0.00000000000000	0.00000000000000	0.00000000000000	0.00000000000000	0.00000000000000	0.00000000000000	3.60219509059841	
1.25500000000000	0.00000000000000	0.00000000000000	0.00000000000000	0.00000000000000	0.00000000000000	0.00000000000000	-41.66652567000000	574.17209906000005	52.30850574000000	0.28161348000000	-0.00000000000000	-0.11608142000000	0.00000000000000	0.00000000000000	0.00000000000000	0.00000000000000	2.46798269000000	-0.00000000000000	0.00000000000000	0.00000000000000	0.00000000000000	0.00000000000000	0.00000000000000	0.00000000000000	0.00000000000000	0.00000000000000	3.78878042034781	0.00000000000000	0.00000000000000	0.00000000000000	0.00000000000000	0.00000000000000	0.00000000000000	0.00000000000000	0.00000000000000	-3.58127496392877	0.00000000000000	0.00000000000000	0.00000000000000	0.00000000000000	0.00000000000000	0.00000000000000	0.00000000000000	0.00000000000000	-3.78878042034781	0.00000000000000	0.00000000000000	0.00000000000000	0.00000000000000	0.00000000000000	0.00000000000000	0.00000000000000	0.00000000000000	3.58127496392877	
